# xmcd
#
# Track frame offsets:
#	150
#	13776
#	24326
#	37563
#	47441
#	63971
#	78392
#	88907
#	109343
#	120181
#	136106
#	151915
#
# Disc length: 2184 seconds
#
# Revision: 0
# Processed by: cddbd v1.5.2PL0 Copyright (c) Steve Scherf et al.
# Submitted via: dBpowerAMP V4.0
#
DISCID=8008860c
DTITLE=Bobby Hachey - Allons danser
DYEAR=1995
DGENRE=Country
TTITLE0=Allons danser
TTITLE1=Just one Time
TTITLE2=On  ne doit pas
TTITLE3=Hello trouble
TTITLE4=Mon bobby blues
TTITLE5=Best friend,My Darling,My wife
TTITLE6=D'la bonne musique
TTITLE7=Funny how time slip's away
TTITLE8=Je ne vais pas mourir
TTITLE9=Born to lose
TTITLE10=You win again
TTITLE11=On se souviens du rock N' roll
EXTD=
EXTT0=
EXTT1=
EXTT2=
EXTT3=
EXTT4=
EXTT5=
EXTT6=
EXTT7=
EXTT8=
EXTT9=
EXTT10=
EXTT11=
PLAYORDER=
